<?xml version="1.0" encoding="UTF-8"?>
<svg id="_レイヤー_1" data-name="レイヤー 1" xmlns="http://www.w3.org/2000/svg" viewBox="0 0 595.28 595.28">
  <defs>
    <style>
      .cls-1 {
        fill: #fcfced;
      }
    </style>
  </defs>
  <rect class="cls-1" x="446.46" y="55.81" width="18.6" height="18.6"/>
  <rect class="cls-1" x="390.65" y="74.41" width="18.6" height="18.6"/>
  <polygon class="cls-1" points="279.04 111.61 279.04 130.22 279.04 148.82 297.64 148.82 316.24 148.82 316.24 130.22 316.24 111.61 297.64 111.61 279.04 111.61"/>
  <polygon class="cls-1" points="409.25 279.04 409.25 297.64 409.25 316.24 427.85 316.24 427.85 297.64 446.46 297.64 446.46 279.04 427.85 279.04 409.25 279.04"/>
  <polygon class="cls-1" points="241.83 334.84 223.23 334.84 223.23 353.44 241.83 353.44 260.43 353.44 260.43 334.84 260.43 316.24 241.83 316.24 241.83 334.84"/>
</svg>