<?xml version="1.0" encoding="UTF-8"?>
<svg id="_レイヤー_4" data-name="レイヤー 4" xmlns="http://www.w3.org/2000/svg" viewBox="0 0 595.28 595.28">
  <defs>
    <style>
      .cls-1 {
        fill: #7bb6d9;
      }
    </style>
  </defs>
  <polygon class="cls-1" points="111.61 0 93.01 0 74.41 0 74.41 18.6 93.01 18.6 93.01 37.2 111.61 37.2 111.61 18.6 130.22 18.6 148.82 18.6 148.82 0 130.22 0 111.61 0"/>
  <polygon class="cls-1" points="111.61 148.82 111.61 167.42 130.22 167.42 130.22 148.82 130.22 130.22 111.61 130.22 111.61 148.82"/>
  <rect class="cls-1" x="427.85" y="167.42" width="18.6" height="18.6"/>
  <rect class="cls-1" x="409.25" y="186.02" width="18.6" height="18.6"/>
  <rect class="cls-1" x="241.83" y="223.23" width="18.6" height="18.6"/>
  <rect class="cls-1" x="353.44" y="427.85" width="18.6" height="18.6"/>
  <rect class="cls-1" x="558.07" y="446.46" width="18.6" height="18.6"/>
  <rect class="cls-1" x="353.44" y="465.06" width="18.6" height="18.6"/>
  <rect class="cls-1" x="539.47" y="465.06" width="18.6" height="18.6"/>
  <polygon class="cls-1" points="502.26 483.66 502.26 502.26 520.87 502.26 539.47 502.26 539.47 483.66 520.87 483.66 502.26 483.66"/>
  <rect class="cls-1" x="483.66" y="520.87" width="18.6" height="18.6"/>
  <polygon class="cls-1" points="465.06 558.07 465.06 576.67 483.66 576.67 483.66 558.07 483.66 539.47 465.06 539.47 465.06 558.07"/>
  <rect class="cls-1" x="334.84" y="558.07" width="18.6" height="18.6"/>
  <rect class="cls-1" x="483.66" y="576.67" width="18.6" height="18.6"/>
</svg>