<?xml version="1.0" encoding="UTF-8"?>
<svg id="_レイヤー_2" data-name="レイヤー 2" xmlns="http://www.w3.org/2000/svg" viewBox="0 0 595.28 595.28">
  <defs>
    <style>
      .cls-1 {
        fill: #e9d6de;
      }
    </style>
  </defs>
  <polygon class="cls-1" points="446.46 186.02 465.06 186.02 465.06 167.42 465.06 148.82 446.46 148.82 446.46 130.22 427.85 130.22 427.85 148.82 427.85 167.42 446.46 167.42 446.46 186.02"/>
  <polygon class="cls-1" points="204.63 223.23 223.23 223.23 223.23 204.63 241.83 204.63 241.83 186.02 241.83 167.42 223.23 167.42 223.23 148.82 204.63 148.82 204.63 167.42 204.63 186.02 204.63 204.63 186.02 204.63 186.02 223.23 186.02 241.83 204.63 241.83 204.63 223.23"/>
  <polygon class="cls-1" points="427.85 241.83 446.46 241.83 465.06 241.83 465.06 260.43 483.66 260.43 502.26 260.43 502.26 241.83 483.66 241.83 483.66 223.23 465.06 223.23 446.46 223.23 446.46 204.63 427.85 204.63 409.25 204.63 409.25 223.23 390.65 223.23 390.65 241.83 409.25 241.83 427.85 241.83"/>
  <rect class="cls-1" x="390.65" y="260.43" width="18.6" height="18.6"/>
  <rect class="cls-1" x="483.66" y="279.04" width="18.6" height="18.6"/>
  <polygon class="cls-1" points="223.23 316.24 223.23 297.64 241.83 297.64 241.83 279.04 260.43 279.04 279.04 279.04 279.04 260.43 279.04 241.83 279.04 223.23 260.43 223.23 260.43 241.83 241.83 241.83 223.23 241.83 223.23 260.43 204.63 260.43 204.63 279.04 186.02 279.04 186.02 297.64 186.02 316.24 204.63 316.24 223.23 316.24"/>
  <polygon class="cls-1" points="93.01 353.44 74.41 353.44 55.81 353.44 55.81 372.05 55.81 390.65 74.41 390.65 74.41 409.25 93.01 409.25 93.01 427.85 111.61 427.85 111.61 409.25 111.61 390.65 111.61 372.05 93.01 372.05 93.01 353.44"/>
  <polygon class="cls-1" points="576.67 0 558.07 0 558.07 18.6 539.47 18.6 539.47 37.2 539.47 55.81 539.47 74.41 558.07 74.41 558.07 93.01 558.07 111.61 576.67 111.61 576.67 130.22 576.67 148.82 576.67 167.42 576.67 186.02 576.67 204.63 576.67 223.23 576.67 241.83 576.67 260.43 576.67 279.04 576.67 297.64 576.67 316.24 576.67 334.84 576.67 353.44 576.67 372.05 595.28 372.05 595.28 353.44 595.28 334.84 595.28 316.24 595.28 297.64 595.28 279.04 595.28 260.43 595.28 241.83 595.28 223.23 595.28 204.63 595.28 186.02 595.28 167.42 595.28 148.82 595.28 130.22 595.28 111.61 595.28 93.01 595.28 74.41 595.28 55.81 595.28 37.2 595.28 18.6 595.28 0 576.67 0"/>
  <rect class="cls-1" x="558.07" y="372.05" width="18.6" height="18.6"/>
  <polygon class="cls-1" points="576.67 427.85 558.07 427.85 558.07 446.46 576.67 446.46 595.28 446.46 595.28 427.85 595.28 409.25 576.67 409.25 576.67 427.85"/>
  <path class="cls-1" d="m520.87,446.46v-93.01h-18.6v-37.2h-18.6v18.6h-18.6v18.6h-55.81v-37.2h-18.6v-37.2h-37.2v18.6h-37.2v-18.6h-18.6v93.01h-18.6v18.6h-55.81v-37.2h-18.6v37.2h-18.6v18.6h18.6v18.6h18.6v37.2h18.6v55.81h18.6v55.81h-18.6v18.6h130.22v-18.6h-37.2v-18.6h74.41v-18.6h18.6v-18.6h37.2v-18.6h18.6v-18.6h18.6v-18.6h18.6v18.6h18.6v-18.6h18.6v-18.6h-37.2Zm-130.22,37.2h-37.2v-18.6h-18.6v-18.6h18.6v-18.6h74.41v37.2h-18.6v18.6h-18.6Zm37.2-111.61v18.6h-37.2v-18.6h37.2Z"/>
  <polygon class="cls-1" points="576.67 520.87 558.07 520.87 539.47 520.87 539.47 539.47 539.47 558.07 558.07 558.07 558.07 576.67 576.67 576.67 576.67 595.28 595.28 595.28 595.28 576.67 595.28 558.07 595.28 539.47 595.28 520.87 595.28 502.26 576.67 502.26 576.67 520.87"/>
</svg>