<?xml version="1.0" encoding="UTF-8"?>
<svg id="_レイヤー_4" data-name="レイヤー 4" xmlns="http://www.w3.org/2000/svg" viewBox="0 0 595.28 595.28">
  <defs>
    <style>
      .cls-1 {
        fill: #d984a9;
      }
    </style>
  </defs>
  <polygon class="cls-1" points="558.07 353.44 539.47 353.44 539.47 372.05 558.07 372.05 576.67 372.05 576.67 353.44 558.07 353.44"/>
  <rect class="cls-1" x="409.25" y="372.05" width="18.6" height="18.6"/>
  <polygon class="cls-1" points="576.67 372.05 576.67 390.65 576.67 409.25 595.28 409.25 595.28 390.65 595.28 372.05 576.67 372.05"/>
  <polygon class="cls-1" points="409.25 446.46 390.65 446.46 372.05 446.46 353.44 446.46 353.44 465.06 372.05 465.06 372.05 483.66 390.65 483.66 409.25 483.66 409.25 465.06 427.85 465.06 427.85 446.46 427.85 427.85 409.25 427.85 409.25 446.46"/>
  <polygon class="cls-1" points="576.67 465.06 558.07 465.06 558.07 483.66 539.47 483.66 539.47 502.26 520.87 502.26 502.26 502.26 502.26 520.87 502.26 539.47 483.66 539.47 483.66 558.07 483.66 576.67 502.26 576.67 502.26 595.28 520.87 595.28 539.47 595.28 558.07 595.28 576.67 595.28 576.67 576.67 558.07 576.67 558.07 558.07 539.47 558.07 539.47 539.47 539.47 520.87 558.07 520.87 576.67 520.87 576.67 502.26 595.28 502.26 595.28 483.66 595.28 465.06 595.28 446.46 576.67 446.46 576.67 465.06"/>
  <rect class="cls-1" x="465.06" y="520.87" width="18.6" height="18.6"/>
  <rect class="cls-1" x="353.44" y="558.07" width="18.6" height="18.6"/>
  <rect class="cls-1" x="372.05" y="130.22" width="18.6" height="18.6"/>
  <rect class="cls-1" x="390.65" y="148.82" width="18.6" height="18.6"/>
  <rect class="cls-1" x="260.43" y="167.42" width="18.6" height="18.6"/>
  <rect class="cls-1" x="409.25" y="167.42" width="18.6" height="18.6"/>
  <rect class="cls-1" x="241.83" y="186.02" width="18.6" height="18.6"/>
  <rect class="cls-1" x="427.85" y="186.02" width="18.6" height="18.6"/>
  <rect class="cls-1" x="223.23" y="204.63" width="18.6" height="18.6"/>
  <rect class="cls-1" x="446.46" y="204.63" width="18.6" height="18.6"/>
  <rect class="cls-1" x="204.63" y="223.23" width="18.6" height="18.6"/>
  <rect class="cls-1" x="186.02" y="241.83" width="18.6" height="18.6"/>
  <rect class="cls-1" x="446.46" y="241.83" width="18.6" height="18.6"/>
  <polygon class="cls-1" points="465.06 334.84 465.06 316.24 446.46 316.24 446.46 334.84 427.85 334.84 409.25 334.84 409.25 353.44 427.85 353.44 446.46 353.44 465.06 353.44 465.06 334.84"/>
  <polygon class="cls-1" points="260.43 372.05 241.83 372.05 223.23 372.05 223.23 390.65 241.83 390.65 260.43 390.65 279.04 390.65 279.04 372.05 279.04 353.44 260.43 353.44 260.43 372.05"/>
  <polygon class="cls-1" points="353.44 55.81 372.05 55.81 390.65 55.81 409.25 55.81 409.25 37.2 427.85 37.2 427.85 55.81 446.46 55.81 465.06 55.81 465.06 74.41 483.66 74.41 502.26 74.41 502.26 93.01 520.87 93.01 520.87 74.41 520.87 55.81 520.87 37.2 502.26 37.2 502.26 18.6 483.66 18.6 465.06 18.6 446.46 18.6 446.46 0 427.85 0 409.25 0 390.65 0 372.05 0 353.44 0 334.84 0 316.24 0 297.64 0 279.04 0 260.43 0 241.83 0 223.23 0 204.63 0 186.02 0 167.42 0 148.82 0 148.82 18.6 130.22 18.6 111.61 18.6 111.61 37.2 93.01 37.2 74.41 37.2 74.41 55.81 55.81 55.81 55.81 74.41 37.2 74.41 37.2 93.01 18.6 93.01 18.6 111.61 18.6 130.22 0 130.22 0 148.82 0 167.42 0 186.02 0 204.63 0 223.23 0 241.83 0 260.43 0 279.04 0 297.64 0 316.24 0 334.84 0 353.44 18.6 353.44 18.6 334.84 18.6 316.24 18.6 297.64 37.2 297.64 37.2 279.04 37.2 260.43 37.2 241.83 55.81 241.83 55.81 223.23 55.81 204.63 55.81 186.02 55.81 167.42 55.81 148.82 74.41 148.82 74.41 167.42 74.41 186.02 74.41 204.63 93.01 204.63 93.01 186.02 93.01 167.42 111.61 167.42 111.61 148.82 111.61 130.22 130.22 130.22 130.22 111.61 148.82 111.61 148.82 93.01 167.42 93.01 186.02 93.01 204.63 93.01 223.23 93.01 241.83 93.01 260.43 93.01 279.04 93.01 297.64 93.01 297.64 74.41 316.24 74.41 334.84 74.41 353.44 74.41 353.44 55.81"/>
  <polygon class="cls-1" points="18.6 483.66 18.6 465.06 0 465.06 0 483.66 0 502.26 0 520.87 18.6 520.87 18.6 502.26 18.6 483.66"/>
  <polygon class="cls-1" points="55.81 539.47 37.2 539.47 37.2 520.87 18.6 520.87 18.6 539.47 18.6 558.07 37.2 558.07 37.2 576.67 55.81 576.67 55.81 558.07 55.81 539.47"/>
  <polygon class="cls-1" points="167.42 353.44 148.82 353.44 148.82 334.84 130.22 334.84 130.22 316.24 130.22 297.64 111.61 297.64 111.61 279.04 93.01 279.04 93.01 260.43 93.01 241.83 74.41 241.83 74.41 260.43 74.41 279.04 74.41 297.64 74.41 316.24 74.41 334.84 93.01 334.84 93.01 353.44 93.01 372.05 111.61 372.05 111.61 390.65 111.61 409.25 111.61 427.85 130.22 427.85 130.22 409.25 148.82 409.25 148.82 390.65 167.42 390.65 186.02 390.65 186.02 372.05 167.42 372.05 167.42 353.44"/>
  <rect class="cls-1" x="93.01" y="427.85" width="18.6" height="18.6"/>
  <polygon class="cls-1" points="111.61 483.66 130.22 483.66 130.22 465.06 130.22 446.46 111.61 446.46 111.61 465.06 111.61 483.66"/>
  <rect class="cls-1" x="130.22" y="483.66" width="18.6" height="18.6"/>
  <rect class="cls-1" x="148.82" y="520.87" width="18.6" height="18.6"/>
  <rect class="cls-1" x="167.42" y="539.47" width="18.6" height="18.6"/>
  <polygon class="cls-1" points="55.81 576.67 55.81 595.28 74.41 595.28 93.01 595.28 93.01 576.67 74.41 576.67 55.81 576.67"/>
</svg>